<?xml version="1.0" encoding="UTF-8" standalone="no"?>
<!-- Created with Inkscape (http://www.inkscape.org/) -->

<svg
   xmlns:dc="http://purl.org/dc/elements/1.1/"
   xmlns:cc="http://creativecommons.org/ns#"
   xmlns:rdf="http://www.w3.org/1999/02/22-rdf-syntax-ns#"
   xmlns:svg="http://www.w3.org/2000/svg"
   xmlns="http://www.w3.org/2000/svg"
   xmlns:sodipodi="http://sodipodi.sourceforge.net/DTD/sodipodi-0.dtd"
   xmlns:inkscape="http://www.inkscape.org/namespaces/inkscape"
   sodipodi:docname="zoom-11.svg"
   width="15.981825"
   inkscape:version="0.48.4 r9939"
   version="1.1"
   height="16"
   id="svg7384">
  <metadata
     id="metadata90">
    <rdf:RDF>
      <cc:Work
         rdf:about="">
        <dc:format>image/svg+xml</dc:format>
        <dc:type
           rdf:resource="http://purl.org/dc/dcmitype/StillImage" />
        <dc:title>Gnome Symbolic Icon Theme</dc:title>
      </cc:Work>
    </rdf:RDF>
  </metadata>
  <sodipodi:namedview
     inkscape:pageopacity="1"
     inkscape:snap-to-guides="true"
     borderopacity="1"
     inkscape:window-maximized="1"
     inkscape:snap-bbox="true"
     inkscape:object-nodes="false"
     inkscape:object-paths="false"
     inkscape:window-width="1278"
     pagecolor="#555753"
     gridtolerance="10"
     inkscape:pageshadow="2"
     bordercolor="#666666"
     inkscape:current-layer="layer12"
     showguides="true"
     id="namedview88"
     showborder="false"
     inkscape:bbox-paths="false"
     inkscape:snap-global="true"
     inkscape:window-x="1366"
     inkscape:window-y="0"
     inkscape:snap-nodes="true"
     inkscape:guide-bbox="true"
     inkscape:snap-grids="true"
     objecttolerance="10"
     inkscape:cx="7.1497225"
     inkscape:cy="10.152787"
     inkscape:snap-others="false"
     showgrid="false"
     inkscape:snap-bbox-midpoints="false"
     guidetolerance="10"
     inkscape:zoom="11.313708"
     inkscape:window-height="999">
    <inkscape:grid
       enabled="true"
       type="xygrid"
       id="grid4866"
       snapvisiblegridlinesonly="true"
       visible="true"
       empspacing="2"
       spacingx="1px"
       spacingy="1px" />
  </sodipodi:namedview>
  <title
     id="title9167">Gnome Symbolic Icon Theme</title>
  <defs
     id="defs7386" />
  <g
     inkscape:label="status"
     id="layer9"
     style="display:inline"
     inkscape:groupmode="layer"
     transform="translate(-181.0002,-667)" />
  <g
     inkscape:label="devices"
     id="layer10"
     inkscape:groupmode="layer"
     transform="translate(-181.0002,-667)" />
  <g
     inkscape:label="apps"
     id="layer11"
     inkscape:groupmode="layer"
     transform="translate(-181.0002,-667)" />
  <g
     inkscape:label="places"
     id="layer13"
     inkscape:groupmode="layer"
     transform="translate(-181.0002,-667)" />
  <g
     inkscape:label="mimetypes"
     id="layer14"
     inkscape:groupmode="layer"
     transform="translate(-181.0002,-667)" />
  <g
     inkscape:label="emblems"
     id="layer15"
     style="display:inline"
     inkscape:groupmode="layer"
     transform="translate(-181.0002,-667)" />
  <g
     inkscape:label="emotes"
     id="g71291"
     style="display:inline"
     inkscape:groupmode="layer"
     transform="translate(-181.0002,-667)" />
  <g
     inkscape:label="categories"
     id="g4953"
     style="display:inline"
     inkscape:groupmode="layer"
     transform="translate(-181.0002,-667)" />
  <g
     inkscape:label="actions"
     id="layer12"
     style="display:inline"
     inkscape:groupmode="layer"
     transform="translate(-181.0002,-667)">
    <path
       d="m 184.1877,669 c -0.6627,0 -1.1875,0.54899 -1.1875,1.21875 l 0,9.5625 c 0,0.66976 0.5248,1.21875 1.1875,1.21875 l 9.625,0 c 0.6627,0 1.1875,-0.54899 1.1875,-1.21875 l 0,-9.5625 c 0,-0.66976 -0.5248,-1.21875 -1.1875,-1.21875 z"
       id="rect11749-5-0-1-8"
       style="color:#bebebe;fill:#bebebe;fill-opacity:1;stroke:none;stroke-width:2;marker:none;visibility:visible;display:inline;overflow:visible"
       inkscape:connector-curvature="0"
       sodipodi:nodetypes="sssssssss" />
    <text
       xml:space="preserve"
       style="font-size:40px;font-style:normal;font-weight:normal;line-height:125%;letter-spacing:0px;word-spacing:0px;fill:#ffffff;fill-opacity:1;stroke:none;font-family:Sans"
       x="184.35896"
       y="676.98956"
       id="text2993"
       sodipodi:linespacing="125%"><tspan
         sodipodi:role="line"
         id="tspan2995"
         x="184.35896"
         y="676.98956"
         style="font-size:6px;fill:#ffffff">1:1</tspan></text>
    <path
       style="fill:#0080ff;fill-opacity:0"
       d="m 2.7497446,13.824124 c -0.1691785,-0.085 -0.3978833,-0.289693 -0.5082329,-0.454876 l -0.2006357,-0.300333 0,-5.0485408 c 0,-4.7206596 0.010489,-5.0680993 0.161509,-5.3496917 C 2.2912149,2.5050496 2.5000324,2.2961899 2.6664238,2.20655 2.9520208,2.0526905 3.256804,2.0448875 8.1118167,2.0671381 l 5.1428633,0.02357 0.272896,0.2614947 c 0.150093,0.143822 0.313882,0.4023579 0.363977,0.5745242 0.05919,0.2034275 0.08171,2.0515926 0.06432,5.2784583 -0.0262,4.8614699 -0.03059,4.9706519 -0.209822,5.2149119 -0.420018,0.572425 -0.277655,0.558569 -5.7389595,0.558569 -4.5361597,0 -4.9754495,-0.01291 -5.2573449,-0.154542 l 0,0 z M 6.6370701,9.7363 c 0,-0.2624866 -0.00491,-0.265165 -0.4861359,-0.265165 l -0.4861359,0 0,-1.9445437 0,-1.9445436 -0.2770712,0 c -0.1523892,0 -0.5302493,0.04665 -0.8396893,0.1036664 -0.562133,0.1035771 -0.5626181,0.1039287 -0.5626181,0.4077836 l 0,0.304117 0.4090479,-0.061341 C 4.619444,6.3025369 4.8580925,6.2539905 4.9247977,6.2283933 5.0249038,6.189979 5.0460798,6.4690103 5.0460798,7.826494 l 0,1.644641 -0.4861359,0 c -0.4812254,0 -0.4861359,0.00268 -0.4861359,0.265165 l 0,0.265165 1.2816311,0 1.281631,0 0,-0.265165 z m 1.9445437,-0.1325825 0,-0.3977476 -0.3535534,0 -0.3535534,0 0,0.3977476 0,0.3977475 0.3535534,0 0.3535534,0 0,-0.3977475 z M 12.470701,9.7363 c 0,-0.2592724 -0.0098,-0.265165 -0.441942,-0.265165 l -0.441941,0 0,-1.9445437 0,-1.9445436 -0.321266,0 c -0.176696,0 -0.574443,0.04665 -0.883883,0.1036664 -0.5577275,0.1027654 -0.5626184,0.1062229 -0.5626184,0.3977476 0,0.3279341 0.1035829,0.3581753 0.7292034,0.2128923 l 0.331457,-0.076971 0,1.6258762 0,1.6258762 -0.486136,0 c -0.4812255,0 -0.486136,0.00268 -0.486136,0.265165 l 0,0.265165 1.281631,0 1.281631,0 0,-0.265165 z M 8.5374196,7.2614263 c 0,-0.3958169 -0.00161,-0.3978807 -0.3314563,-0.4251802 l -0.3314563,-0.027433 0,0.452613 0,0.4526129 0.3314563,-0.027433 C 8.5358107,7.659307 8.5374196,7.6572432 8.5374196,7.2614263 z"
       id="path3765"
       inkscape:connector-curvature="0"
       transform="translate(181.0002,667)" />
    <path
       style="fill:#0080ff;fill-opacity:0"
       d="m 2.7497446,13.824124 c -0.1691785,-0.085 -0.3978833,-0.289693 -0.5082329,-0.454876 l -0.2006357,-0.300333 0,-5.0485408 c 0,-4.7206596 0.010489,-5.0680993 0.161509,-5.3496917 C 2.2912149,2.5050496 2.5000324,2.2961899 2.6664238,2.20655 2.9520208,2.0526905 3.256804,2.0448875 8.1118167,2.0671381 l 5.1428633,0.02357 0.272896,0.2614947 c 0.150093,0.143822 0.313882,0.4023579 0.363977,0.5745242 0.05919,0.2034275 0.08171,2.0515926 0.06432,5.2784583 -0.0262,4.8614699 -0.03059,4.9706519 -0.209822,5.2149119 -0.420018,0.572425 -0.277655,0.558569 -5.7389595,0.558569 -4.5361597,0 -4.9754495,-0.01291 -5.2573449,-0.154542 l 0,0 z M 6.6370701,9.7363 c 0,-0.2624866 -0.00491,-0.265165 -0.4861359,-0.265165 l -0.4861359,0 0,-1.9445437 0,-1.9445436 -0.2770712,0 c -0.1523892,0 -0.5302493,0.04665 -0.8396893,0.1036664 -0.562133,0.1035771 -0.5626181,0.1039287 -0.5626181,0.4077836 l 0,0.304117 0.4090479,-0.061341 C 4.619444,6.3025369 4.8580925,6.2539905 4.9247977,6.2283933 5.0249038,6.189979 5.0460798,6.4690103 5.0460798,7.826494 l 0,1.644641 -0.4861359,0 c -0.4812254,0 -0.4861359,0.00268 -0.4861359,0.265165 l 0,0.265165 1.2816311,0 1.281631,0 0,-0.265165 z m 1.9445437,-0.1325825 0,-0.3977476 -0.3535534,0 -0.3535534,0 0,0.3977476 0,0.3977475 0.3535534,0 0.3535534,0 0,-0.3977475 z M 12.470701,9.7363 c 0,-0.2592724 -0.0098,-0.265165 -0.441942,-0.265165 l -0.441941,0 0,-1.9445437 0,-1.9445436 -0.321266,0 c -0.176696,0 -0.574443,0.04665 -0.883883,0.1036664 -0.5577275,0.1027654 -0.5626184,0.1062229 -0.5626184,0.3977476 0,0.3279341 0.1035829,0.3581753 0.7292034,0.2128923 l 0.331457,-0.076971 0,1.6258762 0,1.6258762 -0.486136,0 c -0.4812255,0 -0.486136,0.00268 -0.486136,0.265165 l 0,0.265165 1.281631,0 1.281631,0 0,-0.265165 z M 8.5374196,7.2614263 c 0,-0.3958169 -0.00161,-0.3978807 -0.3314563,-0.4251802 l -0.3314563,-0.027433 0,0.452613 0,0.4526129 0.3314563,-0.027433 C 8.5358107,7.659307 8.5374196,7.6572432 8.5374196,7.2614263 z"
       id="path3767"
       inkscape:connector-curvature="0"
       transform="translate(181.0002,667)" />
    <path
       style="fill:#0080ff;fill-opacity:0"
       d="m 2.7497446,13.824124 c -0.1691785,-0.085 -0.3978833,-0.289693 -0.5082329,-0.454876 l -0.2006357,-0.300333 0,-5.0485408 c 0,-4.7206596 0.010489,-5.0680993 0.161509,-5.3496917 C 2.2912149,2.5050496 2.5000324,2.2961899 2.6664238,2.20655 2.9520208,2.0526905 3.256804,2.0448875 8.1118167,2.0671381 l 5.1428633,0.02357 0.272896,0.2614947 c 0.150093,0.143822 0.313882,0.4023579 0.363977,0.5745242 0.05919,0.2034275 0.08171,2.0515926 0.06432,5.2784583 -0.0262,4.8614699 -0.03059,4.9706519 -0.209822,5.2149119 -0.420018,0.572425 -0.277655,0.558569 -5.7389595,0.558569 -4.5361597,0 -4.9754495,-0.01291 -5.2573449,-0.154542 l 0,0 z M 6.6370701,9.7363 c 0,-0.2624866 -0.00491,-0.265165 -0.4861359,-0.265165 l -0.4861359,0 0,-1.9445437 0,-1.9445436 -0.2770712,0 c -0.1523892,0 -0.5302493,0.04665 -0.8396893,0.1036664 -0.562133,0.1035771 -0.5626181,0.1039287 -0.5626181,0.4077836 l 0,0.304117 0.4090479,-0.061341 C 4.619444,6.3025369 4.8580925,6.2539905 4.9247977,6.2283933 5.0249038,6.189979 5.0460798,6.4690103 5.0460798,7.826494 l 0,1.644641 -0.4861359,0 c -0.4812254,0 -0.4861359,0.00268 -0.4861359,0.265165 l 0,0.265165 1.2816311,0 1.281631,0 0,-0.265165 z m 1.9445437,-0.1325825 0,-0.3977476 -0.3535534,0 -0.3535534,0 0,0.3977476 0,0.3977475 0.3535534,0 0.3535534,0 0,-0.3977475 z M 12.470701,9.7363 c 0,-0.2592724 -0.0098,-0.265165 -0.441942,-0.265165 l -0.441941,0 0,-1.9445437 0,-1.9445436 -0.321266,0 c -0.176696,0 -0.574443,0.04665 -0.883883,0.1036664 -0.5577275,0.1027654 -0.5626184,0.1062229 -0.5626184,0.3977476 0,0.3279341 0.1035829,0.3581753 0.7292034,0.2128923 l 0.331457,-0.076971 0,1.6258762 0,1.6258762 -0.486136,0 c -0.4812255,0 -0.486136,0.00268 -0.486136,0.265165 l 0,0.265165 1.281631,0 1.281631,0 0,-0.265165 z M 8.5374196,7.2614263 c 0,-0.3958169 -0.00161,-0.3978807 -0.3314563,-0.4251802 l -0.3314563,-0.027433 0,0.452613 0,0.4526129 0.3314563,-0.027433 C 8.5358107,7.659307 8.5374196,7.6572432 8.5374196,7.2614263 z"
       id="path3769"
       inkscape:connector-curvature="0"
       transform="translate(181.0002,667)" />
    <path
       style="fill:#0080ff;fill-opacity:0"
       d="m 2.7497446,13.824124 c -0.1691785,-0.085 -0.3978833,-0.289693 -0.5082329,-0.454876 l -0.2006357,-0.300333 0,-5.0485408 c 0,-4.7206596 0.010489,-5.0680993 0.161509,-5.3496917 C 2.2912149,2.5050496 2.5000324,2.2961899 2.6664238,2.20655 2.9520208,2.0526905 3.256804,2.0448875 8.1118167,2.0671381 l 5.1428633,0.02357 0.272896,0.2614947 c 0.150093,0.143822 0.313882,0.4023579 0.363977,0.5745242 0.05919,0.2034275 0.08171,2.0515926 0.06432,5.2784583 -0.0262,4.8614699 -0.03059,4.9706519 -0.209822,5.2149119 -0.420018,0.572425 -0.277655,0.558569 -5.7389595,0.558569 -4.5361597,0 -4.9754495,-0.01291 -5.2573449,-0.154542 l 0,0 z M 6.6370701,9.7363 c 0,-0.2624866 -0.00491,-0.265165 -0.4861359,-0.265165 l -0.4861359,0 0,-1.9445437 0,-1.9445436 -0.2770712,0 c -0.1523892,0 -0.5302493,0.04665 -0.8396893,0.1036664 -0.562133,0.1035771 -0.5626181,0.1039287 -0.5626181,0.4077836 l 0,0.304117 0.4090479,-0.061341 C 4.619444,6.3025369 4.8580925,6.2539905 4.9247977,6.2283933 5.0249038,6.189979 5.0460798,6.4690103 5.0460798,7.826494 l 0,1.644641 -0.4861359,0 c -0.4812254,0 -0.4861359,0.00268 -0.4861359,0.265165 l 0,0.265165 1.2816311,0 1.281631,0 0,-0.265165 z m 1.9445437,-0.1325825 0,-0.3977476 -0.3535534,0 -0.3535534,0 0,0.3977476 0,0.3977475 0.3535534,0 0.3535534,0 0,-0.3977475 z M 12.470701,9.7363 c 0,-0.2592724 -0.0098,-0.265165 -0.441942,-0.265165 l -0.441941,0 0,-1.9445437 0,-1.9445436 -0.321266,0 c -0.176696,0 -0.574443,0.04665 -0.883883,0.1036664 -0.5577275,0.1027654 -0.5626184,0.1062229 -0.5626184,0.3977476 0,0.3279341 0.1035829,0.3581753 0.7292034,0.2128923 l 0.331457,-0.076971 0,1.6258762 0,1.6258762 -0.486136,0 c -0.4812255,0 -0.486136,0.00268 -0.486136,0.265165 l 0,0.265165 1.281631,0 1.281631,0 0,-0.265165 z M 8.5374196,7.2614263 c 0,-0.3958169 -0.00161,-0.3978807 -0.3314563,-0.4251802 l -0.3314563,-0.027433 0,0.452613 0,0.4526129 0.3314563,-0.027433 C 8.5358107,7.659307 8.5374196,7.6572432 8.5374196,7.2614263 z"
       id="path3771"
       inkscape:connector-curvature="0"
       transform="translate(181.0002,667)" />
  </g>
</svg>
