<?xml version="1.0" encoding="UTF-8" standalone="no"?>
<svg
   width="40"
   height="40"
   viewBox="0 0 24 24"
   fill="none"
   version="1.1"
   id="svg2"
   sodipodi:docname="data-panel-icon.svg"
   inkscape:version="1.4.2 (ebf0e940, 2025-05-08)"
   xmlns:inkscape="http://www.inkscape.org/namespaces/inkscape"
   xmlns:sodipodi="http://sodipodi.sourceforge.net/DTD/sodipodi-0.dtd"
   xmlns:xlink="http://www.w3.org/1999/xlink"
   xmlns="http://www.w3.org/2000/svg"
   xmlns:svg="http://www.w3.org/2000/svg">
  <path
     style="font-weight:500;font-size:5.33333px;line-height:0.9;font-family:'Helvetica Neue';-inkscape-font-specification:'Helvetica Neue Medium';white-space:pre;fill:url(#linearGradient8);stroke-width:0.334"
     d="m 2.0775884,5.4693634 q 0.1919999,0 0.3733331,-0.032 0.1813332,-0.032 0.3253331,-0.1066666 Q 2.9255879,5.2560302 3.0269211,5.1386969 3.1335877,5.0213636 3.1655877,4.8506971 H 3.6615874 V 8.5840282 H 2.9949212 V 5.9493631 H 2.0775884 Z M 6.242918,4.7760305 q 0.3999998,0 0.6506663,0.1866665 0.2559998,0.1813332 0.3946664,0.4693331 0.1439999,0.2826665 0.1919999,0.6239996 0.053333,0.3413331 0.053333,0.6613329 0,0.3199998 -0.053333,0.661333 -0.048,0.3413331 -0.1919999,0.6293329 Q 7.1495841,8.290695 6.8935843,8.4773616 6.6429178,8.6586948 6.242918,8.6586948 q -0.3999997,0 -0.6559996,-0.1813332 Q 5.3362519,8.290695 5.192252,8.0080285 5.0535854,7.7200287 5.0002521,7.3786956 q -0.048,-0.3413332 -0.048,-0.661333 0,-0.3199998 0.048,-0.6613329 Q 5.0535854,5.7146966 5.192252,5.4320301 5.3362519,5.1440302 5.5869184,4.962697 5.8429183,4.7760305 6.242918,4.7760305 Z m 0,3.3759979 q 0.1973332,0 0.3306665,-0.1119999 0.1333332,-0.1173333 0.2079999,-0.3093331 0.08,-0.1973333 0.1119999,-0.4586664 0.032,-0.2613332 0.032,-0.5546664 0,-0.2933331 -0.032,-0.549333 Q 6.8615843,5.9066964 6.7815844,5.7093632 6.7069177,5.51203 6.5735845,5.4000301 6.4402512,5.2826968 6.242918,5.2826968 q -0.2026665,0 -0.3359998,0.1173333 Q 5.7789183,5.51203 5.6989183,5.7093632 5.6242517,5.9066964 5.5922517,6.1680296 q -0.032,0.2559999 -0.032,0.549333 0,0.2933332 0.032,0.5546664 0.032,0.2613331 0.1066666,0.4586664 0.08,0.1919998 0.2079999,0.3093331 0.1333333,0.1119999 0.3359998,0.1119999 z m 1.7653311,-2.682665 q 0.1919999,0 0.3733331,-0.032 0.1813332,-0.032 0.3253331,-0.1066666 Q 8.8562486,5.2560302 8.9575819,5.1386969 9.0642485,5.0213636 9.0962484,4.8506971 H 9.5922482 V 8.5840282 H 8.9255819 V 5.9493631 H 8.0082491 Z M 12.173579,4.7760305 q 0.4,0 0.650666,0.1866665 0.256,0.1813332 0.394667,0.4693331 0.144,0.2826665 0.192,0.6239996 0.05333,0.3413331 0.05333,0.6613329 0,0.3199998 -0.05333,0.661333 -0.048,0.3413331 -0.192,0.6293329 -0.138667,0.2826665 -0.394667,0.4693331 -0.250666,0.1813332 -0.650666,0.1813332 -0.4,0 -0.656,-0.1813332 -0.250666,-0.1866666 -0.394666,-0.4693331 -0.138667,-0.2879998 -0.192,-0.6293329 -0.048,-0.3413332 -0.048,-0.661333 0,-0.3199998 0.048,-0.6613329 0.05333,-0.3413331 0.192,-0.6239996 0.144,-0.2879999 0.394666,-0.4693331 0.256,-0.1866665 0.656,-0.1866665 z m 0,3.3759979 q 0.197333,0 0.330666,-0.1119999 0.133334,-0.1173333 0.208,-0.3093331 0.08,-0.1973333 0.112,-0.4586664 0.032,-0.2613332 0.032,-0.5546664 0,-0.2933331 -0.032,-0.549333 -0.032,-0.2613332 -0.112,-0.4586664 -0.07467,-0.1973332 -0.208,-0.3093331 -0.133333,-0.1173333 -0.330666,-0.1173333 -0.202667,0 -0.336,0.1173333 -0.128,0.1119999 -0.208,0.3093331 -0.07467,0.1973332 -0.106666,0.4586664 -0.032,0.2559999 -0.032,0.549333 0,0.2933332 0.032,0.5546664 0.032,0.2613331 0.106666,0.4586664 0.08,0.1919998 0.208,0.3093331 0.133333,0.1119999 0.336,0.1119999 z m 2.96533,-3.3759979 q 0.4,0 0.650666,0.1866665 0.256,0.1813332 0.394667,0.4693331 0.144,0.2826665 0.192,0.6239996 0.05333,0.3413331 0.05333,0.6613329 0,0.3199998 -0.05333,0.661333 -0.048,0.3413331 -0.192,0.6293329 -0.138667,0.2826665 -0.394667,0.4693331 -0.250666,0.1813332 -0.650666,0.1813332 -0.4,0 -0.656,-0.1813332 -0.250666,-0.1866666 -0.394666,-0.4693331 -0.138667,-0.2879998 -0.192,-0.6293329 -0.048,-0.3413332 -0.048,-0.661333 0,-0.3199998 0.048,-0.6613329 0.05333,-0.3413331 0.192,-0.6239996 0.144,-0.2879999 0.394666,-0.4693331 0.256,-0.1866665 0.656,-0.1866665 z m 0,3.3759979 q 0.197333,0 0.330667,-0.1119999 0.133333,-0.1173333 0.207999,-0.3093331 0.08,-0.1973333 0.112,-0.4586664 0.032,-0.2613332 0.032,-0.5546664 0,-0.2933331 -0.032,-0.549333 -0.032,-0.2613332 -0.112,-0.4586664 Q 15.602909,5.51203 15.469576,5.4000301 15.336242,5.2826968 15.138909,5.2826968 q -0.202666,0 -0.336,0.1173333 -0.128,0.1119999 -0.208,0.3093331 -0.07467,0.1973332 -0.106666,0.4586664 -0.032,0.2559999 -0.032,0.549333 0,0.2933332 0.032,0.5546664 0.032,0.2613331 0.106666,0.4586664 0.08,0.1919998 0.208,0.3093331 0.133334,0.1119999 0.336,0.1119999 z m 1.765331,-2.682665 q 0.192,0 0.373333,-0.032 0.181333,-0.032 0.325333,-0.1066666 0.149333,-0.074667 0.250667,-0.1919999 0.106666,-0.1173333 0.138666,-0.2879998 h 0.496 V 8.5840282 H 17.821573 V 5.9493631 H 16.90424 Z m 4.16533,-0.6933329 q 0.4,0 0.650667,0.1866665 0.255999,0.1813332 0.394666,0.4693331 0.144,0.2826665 0.192,0.6239996 0.05333,0.3413331 0.05333,0.6613329 0,0.3199998 -0.05333,0.661333 -0.048,0.3413331 -0.192,0.6293329 -0.138667,0.2826665 -0.394666,0.4693331 -0.250667,0.1813332 -0.650667,0.1813332 -0.399999,0 -0.655999,-0.1813332 -0.250667,-0.1866666 -0.394667,-0.4693331 -0.138666,-0.2879998 -0.192,-0.6293329 -0.048,-0.3413332 -0.048,-0.661333 0,-0.3199998 0.048,-0.6613329 0.05333,-0.3413331 0.192,-0.6239996 0.144,-0.2879999 0.394667,-0.4693331 0.256,-0.1866665 0.655999,-0.1866665 z m 0,3.3759979 q 0.197334,0 0.330667,-0.1119999 0.133333,-0.1173333 0.208,-0.3093331 0.08,-0.1973333 0.112,-0.4586664 0.032,-0.2613332 0.032,-0.5546664 0,-0.2933331 -0.032,-0.549333 -0.032,-0.2613332 -0.112,-0.4586664 -0.07467,-0.1973332 -0.208,-0.3093331 -0.133333,-0.1173333 -0.330667,-0.1173333 -0.202666,0 -0.335999,0.1173333 -0.128,0.1119999 -0.208,0.3093331 -0.07467,0.1973332 -0.106667,0.4586664 -0.032,0.2559999 -0.032,0.549333 0,0.2933332 0.032,0.5546664 0.032,0.2613331 0.106667,0.4586664 0.08,0.1919998 0.208,0.3093331 0.133333,0.1119999 0.335999,0.1119999 z m 1.765331,-2.682665 q 0.192,0 0.373333,-0.032 0.181333,-0.032 0.325333,-0.1066666 0.149334,-0.074667 0.250667,-0.1919999 0.106667,-0.1173333 0.138666,-0.2879998 h 0.496 V 8.5840282 H 23.752234 V 5.9493631 h -0.917333 z m 4.16533,-0.6933329 q 0.399999,0 0.650666,0.1866665 0.256,0.1813332 0.394666,0.4693331 0.144,0.2826665 0.192,0.6239996 0.05333,0.3413331 0.05333,0.6613329 0,0.3199998 -0.05333,0.661333 -0.048,0.3413331 -0.192,0.6293329 -0.138666,0.2826665 -0.394666,0.4693331 -0.250667,0.1813332 -0.650666,0.1813332 -0.4,0 -0.656,-0.1813332 -0.250667,-0.1866666 -0.394666,-0.4693331 -0.138667,-0.2879998 -0.192,-0.6293329 -0.048,-0.3413332 -0.048,-0.661333 0,-0.3199998 0.048,-0.6613329 0.05333,-0.3413331 0.192,-0.6239996 0.143999,-0.2879999 0.394666,-0.4693331 0.256,-0.1866665 0.656,-0.1866665 z m 0,3.3759979 q 0.197333,0 0.330666,-0.1119999 0.133333,-0.1173333 0.208,-0.3093331 0.08,-0.1973333 0.112,-0.4586664 0.032,-0.2613332 0.032,-0.5546664 0,-0.2933331 -0.032,-0.549333 -0.032,-0.2613332 -0.112,-0.4586664 -0.07467,-0.1973332 -0.208,-0.3093331 -0.133333,-0.1173333 -0.330666,-0.1173333 -0.202667,0 -0.336,0.1173333 -0.128,0.1119999 -0.208,0.3093331 -0.07467,0.1973332 -0.106667,0.4586664 -0.032,0.2559999 -0.032,0.549333 0,0.2933332 0.032,0.5546664 0.032,0.2613331 0.106667,0.4586664 0.08,0.1919998 0.208,0.3093331 0.133333,0.1119999 0.336,0.1119999 z m 2.96533,-3.3759979 q 0.399999,0 0.650666,0.1866665 0.256,0.1813332 0.394666,0.4693331 0.144,0.2826665 0.192,0.6239996 0.05333,0.3413331 0.05333,0.6613329 0,0.3199998 -0.05333,0.661333 -0.048,0.3413331 -0.192,0.6293329 -0.138666,0.2826665 -0.394666,0.4693331 -0.250667,0.1813332 -0.650666,0.1813332 -0.4,0 -0.656,-0.1813332 -0.250666,-0.1866666 -0.394666,-0.4693331 -0.138667,-0.2879998 -0.192,-0.6293329 -0.048,-0.3413332 -0.048,-0.661333 0,-0.3199998 0.048,-0.6613329 0.05333,-0.3413331 0.192,-0.6239996 0.144,-0.2879999 0.394666,-0.4693331 0.256,-0.1866665 0.656,-0.1866665 z m 0,3.3759979 q 0.197333,0 0.330666,-0.1119999 0.133333,-0.1173333 0.208,-0.3093331 0.08,-0.1973333 0.112,-0.4586664 0.032,-0.2613332 0.032,-0.5546664 0,-0.2933331 -0.032,-0.549333 -0.032,-0.2613332 -0.112,-0.4586664 -0.07467,-0.1973332 -0.208,-0.3093331 -0.133333,-0.1173333 -0.330666,-0.1173333 -0.202667,0 -0.336,0.1173333 -0.128,0.1119999 -0.208,0.3093331 -0.07467,0.1973332 -0.106667,0.4586664 -0.032,0.2559999 -0.032,0.549333 0,0.2933332 0.032,0.5546664 0.032,0.2613331 0.106667,0.4586664 0.08,0.1919998 0.208,0.3093331 0.133333,0.1119999 0.336,0.1119999 z m 1.765331,-2.682665 q 0.191999,0 0.373333,-0.032 0.181333,-0.032 0.325333,-0.1066666 0.149333,-0.074667 0.250666,-0.1919999 0.106667,-0.1173333 0.138667,-0.2879998 h 0.496 V 8.5840282 H 32.648224 V 5.9493631 H 31.730892 Z M 3.2775877,9.5760278 q 0.3999997,0 0.6506662,0.1866665 0.2559999,0.1813333 0.3946665,0.4693327 0.1439999,0.282667 0.1919999,0.624 0.053333,0.341333 0.053333,0.661333 0,0.32 -0.053333,0.661333 -0.048,0.341333 -0.1919999,0.629333 -0.1386666,0.282666 -0.3946665,0.469333 -0.2506665,0.181333 -0.6506662,0.181333 -0.3999998,0 -0.6559997,-0.181333 -0.2506665,-0.186667 -0.3946664,-0.469333 -0.1386666,-0.288 -0.1919999,-0.629333 -0.048,-0.341333 -0.048,-0.661333 0,-0.32 0.048,-0.661333 0.053333,-0.341333 0.1919999,-0.624 Q 2.3709215,9.9440276 2.621588,9.7626943 2.8775879,9.5760278 3.2775877,9.5760278 Z m 0,3.3759982 q 0.1973332,0 0.3306664,-0.112 0.1333333,-0.117333 0.2079999,-0.309333 0.08,-0.197334 0.1119999,-0.458667 0.032,-0.261333 0.032,-0.554666 0,-0.293333 -0.032,-0.549333 -0.032,-0.261333 -0.1119999,-0.458666 -0.074667,-0.197334 -0.2079999,-0.309334 -0.1333332,-0.117333 -0.3306664,-0.117333 -0.2026666,0 -0.3359998,0.117333 -0.128,0.112 -0.2079999,0.309334 -0.074667,0.197333 -0.1066666,0.458666 -0.032,0.256 -0.032,0.549333 0,0.293333 0.032,0.554666 0.032,0.261333 0.1066666,0.458667 0.08,0.192 0.2079999,0.309333 0.1333332,0.112 0.3359998,0.112 z M 6.242918,9.5760278 q 0.3999998,0 0.6506663,0.1866665 0.2559998,0.1813333 0.3946664,0.4693327 0.1439999,0.282667 0.1919999,0.624 0.053333,0.341333 0.053333,0.661333 0,0.32 -0.053333,0.661333 -0.048,0.341333 -0.1919999,0.629333 -0.1386666,0.282666 -0.3946664,0.469333 -0.2506665,0.181333 -0.6506663,0.181333 -0.3999997,0 -0.6559996,-0.181333 -0.2506665,-0.186667 -0.3946664,-0.469333 -0.1386666,-0.288 -0.1919999,-0.629333 -0.048,-0.341333 -0.048,-0.661333 0,-0.32 0.048,-0.661333 0.053333,-0.341333 0.1919999,-0.624 Q 5.3362519,9.9440276 5.5869184,9.7626943 5.8429183,9.5760278 6.242918,9.5760278 Z m 0,3.3759982 q 0.1973332,0 0.3306665,-0.112 0.1333332,-0.117333 0.2079999,-0.309333 0.08,-0.197334 0.1119999,-0.458667 0.032,-0.261333 0.032,-0.554666 0,-0.293333 -0.032,-0.549333 -0.032,-0.261333 -0.1119999,-0.458666 -0.074667,-0.197334 -0.2079999,-0.309334 -0.1333333,-0.117333 -0.3306665,-0.117333 -0.2026665,0 -0.3359998,0.117333 -0.1279999,0.112 -0.2079999,0.309334 -0.074667,0.197333 -0.1066666,0.458666 -0.032,0.256 -0.032,0.549333 0,0.293333 0.032,0.554666 0.032,0.261333 0.1066666,0.458667 0.08,0.192 0.2079999,0.309333 0.1333333,0.112 0.3359998,0.112 z m 1.7653311,-2.682665 q 0.1919999,0 0.3733331,-0.032 0.1813332,-0.032 0.3253331,-0.106667 Q 8.8562486,10.056027 8.9575819,9.9386942 9.0642485,9.821361 9.0962484,9.6506944 H 9.5922482 V 13.384026 H 8.9255819 V 10.74936 H 8.0082491 Z M 12.173579,9.5760278 q 0.4,0 0.650666,0.1866665 0.256,0.1813333 0.394667,0.4693327 0.144,0.282667 0.192,0.624 0.05333,0.341333 0.05333,0.661333 0,0.32 -0.05333,0.661333 -0.048,0.341333 -0.192,0.629333 -0.138667,0.282666 -0.394667,0.469333 -0.250666,0.181333 -0.650666,0.181333 -0.4,0 -0.656,-0.181333 -0.250666,-0.186667 -0.394666,-0.469333 -0.138667,-0.288 -0.192,-0.629333 -0.048,-0.341333 -0.048,-0.661333 0,-0.32 0.048,-0.661333 0.05333,-0.341333 0.192,-0.624 0.144,-0.2879994 0.394666,-0.4693327 0.256,-0.1866665 0.656,-0.1866665 z m 0,3.3759982 q 0.197333,0 0.330666,-0.112 0.133334,-0.117333 0.208,-0.309333 0.08,-0.197334 0.112,-0.458667 0.032,-0.261333 0.032,-0.554666 0,-0.293333 -0.032,-0.549333 -0.032,-0.261333 -0.112,-0.458666 -0.07467,-0.197334 -0.208,-0.309334 -0.133333,-0.117333 -0.330666,-0.117333 -0.202667,0 -0.336,0.117333 -0.128,0.112 -0.208,0.309334 -0.07467,0.197333 -0.106666,0.458666 -0.032,0.256 -0.032,0.549333 0,0.293333 0.032,0.554666 0.032,0.261333 0.106666,0.458667 0.08,0.192 0.208,0.309333 0.133333,0.112 0.336,0.112 z m 2.96533,-3.3759982 q 0.4,0 0.650666,0.1866665 0.256,0.1813333 0.394667,0.4693327 0.144,0.282667 0.192,0.624 0.05333,0.341333 0.05333,0.661333 0,0.32 -0.05333,0.661333 -0.048,0.341333 -0.192,0.629333 -0.138667,0.282666 -0.394667,0.469333 -0.250666,0.181333 -0.650666,0.181333 -0.4,0 -0.656,-0.181333 -0.250666,-0.186667 -0.394666,-0.469333 -0.138667,-0.288 -0.192,-0.629333 -0.048,-0.341333 -0.048,-0.661333 0,-0.32 0.048,-0.661333 0.05333,-0.341333 0.192,-0.624 0.144,-0.2879994 0.394666,-0.4693327 0.256,-0.1866665 0.656,-0.1866665 z m 0,3.3759982 q 0.197333,0 0.330667,-0.112 0.133333,-0.117333 0.207999,-0.309333 0.08,-0.197334 0.112,-0.458667 0.032,-0.261333 0.032,-0.554666 0,-0.293333 -0.032,-0.549333 -0.032,-0.261333 -0.112,-0.458666 -0.07467,-0.197334 -0.207999,-0.309334 -0.133334,-0.117333 -0.330667,-0.117333 -0.202666,0 -0.336,0.117333 -0.128,0.112 -0.208,0.309334 -0.07467,0.197333 -0.106666,0.458666 -0.032,0.256 -0.032,0.549333 0,0.293333 0.032,0.554666 0.032,0.261333 0.106666,0.458667 0.08,0.192 0.208,0.309333 0.133334,0.112 0.336,0.112 z m 2.96533,-3.3759982 q 0.4,0 0.650667,0.1866665 0.255999,0.1813333 0.394666,0.4693327 0.144,0.282667 0.192,0.624 0.05333,0.341333 0.05333,0.661333 0,0.32 -0.05333,0.661333 -0.048,0.341333 -0.192,0.629333 -0.138667,0.282666 -0.394666,0.469333 -0.250667,0.181333 -0.650667,0.181333 -0.4,0 -0.655999,-0.181333 -0.250667,-0.186667 -0.394667,-0.469333 -0.138666,-0.288 -0.192,-0.629333 -0.048,-0.341333 -0.048,-0.661333 0,-0.32 0.048,-0.661333 0.05333,-0.341333 0.192,-0.624 0.144,-0.2879994 0.394667,-0.4693327 0.255999,-0.1866665 0.655999,-0.1866665 z m 0,3.3759982 q 0.197333,0 0.330667,-0.112 0.133333,-0.117333 0.208,-0.309333 0.08,-0.197334 0.112,-0.458667 0.032,-0.261333 0.032,-0.554666 0,-0.293333 -0.032,-0.549333 -0.032,-0.261333 -0.112,-0.458666 -0.07467,-0.197334 -0.208,-0.309334 -0.133334,-0.117333 -0.330667,-0.117333 -0.202666,0 -0.336,0.117333 -0.127999,0.112 -0.207999,0.309334 -0.07467,0.197333 -0.106667,0.458666 -0.032,0.256 -0.032,0.549333 0,0.293333 0.032,0.554666 0.032,0.261333 0.106667,0.458667 0.08,0.192 0.207999,0.309333 0.133334,0.112 0.336,0.112 z M 21.06957,9.5760278 q 0.4,0 0.650667,0.1866665 0.255999,0.1813333 0.394666,0.4693327 0.144,0.282667 0.192,0.624 0.05333,0.341333 0.05333,0.661333 0,0.32 -0.05333,0.661333 -0.048,0.341333 -0.192,0.629333 -0.138667,0.282666 -0.394666,0.469333 -0.250667,0.181333 -0.650667,0.181333 -0.399999,0 -0.655999,-0.181333 -0.250667,-0.186667 -0.394667,-0.469333 -0.138666,-0.288 -0.192,-0.629333 -0.048,-0.341333 -0.048,-0.661333 0,-0.32 0.048,-0.661333 0.05333,-0.341333 0.192,-0.624 0.144,-0.2879994 0.394667,-0.4693327 0.256,-0.1866665 0.655999,-0.1866665 z m 0,3.3759982 q 0.197334,0 0.330667,-0.112 0.133333,-0.117333 0.208,-0.309333 0.08,-0.197334 0.112,-0.458667 0.032,-0.261333 0.032,-0.554666 0,-0.293333 -0.032,-0.549333 -0.032,-0.261333 -0.112,-0.458666 -0.07467,-0.197334 -0.208,-0.309334 -0.133333,-0.117333 -0.330667,-0.117333 -0.202666,0 -0.335999,0.117333 -0.128,0.112 -0.208,0.309334 -0.07467,0.197333 -0.106667,0.458666 -0.032,0.256 -0.032,0.549333 0,0.293333 0.032,0.554666 0.032,0.261333 0.106667,0.458667 0.08,0.192 0.208,0.309333 0.133333,0.112 0.335999,0.112 z M 24.0349,9.5760278 q 0.4,0 0.650667,0.1866665 0.256,0.1813333 0.394666,0.4693327 0.144,0.282667 0.192,0.624 0.05333,0.341333 0.05333,0.661333 0,0.32 -0.05333,0.661333 -0.048,0.341333 -0.192,0.629333 -0.138666,0.282666 -0.394666,0.469333 -0.250667,0.181333 -0.650667,0.181333 -0.399999,0 -0.655999,-0.181333 -0.250667,-0.186667 -0.394667,-0.469333 -0.138666,-0.288 -0.191999,-0.629333 -0.048,-0.341333 -0.048,-0.661333 0,-0.32 0.048,-0.661333 0.05333,-0.341333 0.191999,-0.624 0.144,-0.2879994 0.394667,-0.4693327 0.256,-0.1866665 0.655999,-0.1866665 z m 0,3.3759982 q 0.197334,0 0.330667,-0.112 0.133333,-0.117333 0.208,-0.309333 0.08,-0.197334 0.112,-0.458667 0.032,-0.261333 0.032,-0.554666 0,-0.293333 -0.032,-0.549333 -0.032,-0.261333 -0.112,-0.458666 -0.07467,-0.197334 -0.208,-0.309334 -0.133333,-0.117333 -0.330667,-0.117333 -0.202666,0 -0.335999,0.117333 -0.128,0.112 -0.208,0.309334 -0.07467,0.197333 -0.106667,0.458666 -0.032,0.256 -0.032,0.549333 0,0.293333 0.032,0.554666 0.032,0.261333 0.106667,0.458667 0.08,0.192 0.208,0.309333 0.133333,0.112 0.335999,0.112 z m 1.765331,-2.682665 q 0.192,0 0.373333,-0.032 0.181334,-0.032 0.325334,-0.106667 0.149333,-0.07467 0.250666,-0.1919998 0.106667,-0.1173332 0.138667,-0.2879998 H 27.38423 V 13.384026 H 26.717564 V 10.74936 h -0.917333 z m 4.16533,-0.6933332 q 0.399999,0 0.650666,0.1866665 0.256,0.1813333 0.394666,0.4693327 0.144,0.282667 0.192,0.624 0.05333,0.341333 0.05333,0.661333 0,0.32 -0.05333,0.661333 -0.048,0.341333 -0.192,0.629333 -0.138666,0.282666 -0.394666,0.469333 -0.250667,0.181333 -0.650666,0.181333 -0.4,0 -0.656,-0.181333 -0.250666,-0.186667 -0.394666,-0.469333 -0.138667,-0.288 -0.192,-0.629333 -0.048,-0.341333 -0.048,-0.661333 0,-0.32 0.048,-0.661333 0.05333,-0.341333 0.192,-0.624 0.144,-0.2879994 0.394666,-0.4693327 0.256,-0.1866665 0.656,-0.1866665 z m 0,3.3759982 q 0.197333,0 0.330666,-0.112 0.133333,-0.117333 0.208,-0.309333 0.08,-0.197334 0.112,-0.458667 0.032,-0.261333 0.032,-0.554666 0,-0.293333 -0.032,-0.549333 -0.032,-0.261333 -0.112,-0.458666 -0.07467,-0.197334 -0.208,-0.309334 -0.133333,-0.117333 -0.330666,-0.117333 -0.202667,0 -0.336,0.117333 -0.128,0.112 -0.208,0.309334 -0.07467,0.197333 -0.106667,0.458666 -0.032,0.256 -0.032,0.549333 0,0.293333 0.032,0.554666 0.032,0.261333 0.106667,0.458667 0.08,0.192 0.208,0.309333 0.133333,0.112 0.336,0.112 z m 1.765331,-2.682665 q 0.191999,0 0.373333,-0.032 0.181333,-0.032 0.325333,-0.106667 0.149333,-0.07467 0.250666,-0.1919998 0.106667,-0.1173332 0.138667,-0.2879998 h 0.496 V 13.384026 H 32.648224 V 10.74936 H 31.730892 Z M 3.2775877,14.376025 q 0.3999997,0 0.6506662,0.186667 0.2559999,0.181333 0.3946665,0.469333 0.1439999,0.282666 0.1919999,0.623999 0.053333,0.341333 0.053333,0.661333 0,0.32 -0.053333,0.661333 -0.048,0.341333 -0.1919999,0.629333 -0.1386666,0.282667 -0.3946665,0.469333 -0.2506665,0.181333 -0.6506662,0.181333 -0.3999998,0 -0.6559997,-0.181333 -0.2506665,-0.186666 -0.3946664,-0.469333 -0.1386666,-0.288 -0.1919999,-0.629333 -0.048,-0.341333 -0.048,-0.661333 0,-0.32 0.048,-0.661333 0.053333,-0.341333 0.1919999,-0.623999 0.1439999,-0.288 0.3946664,-0.469333 0.2559999,-0.186667 0.6559997,-0.186667 z m 0,3.375998 q 0.1973332,0 0.3306664,-0.112 0.1333333,-0.117333 0.2079999,-0.309333 0.08,-0.197333 0.1119999,-0.458666 0.032,-0.261334 0.032,-0.554667 0,-0.293333 -0.032,-0.549333 -0.032,-0.261333 -0.1119999,-0.458666 -0.074667,-0.197333 -0.2079999,-0.309333 -0.1333332,-0.117334 -0.3306664,-0.117334 -0.2026666,0 -0.3359998,0.117334 -0.128,0.112 -0.2079999,0.309333 -0.074667,0.197333 -0.1066666,0.458666 -0.032,0.256 -0.032,0.549333 0,0.293333 0.032,0.554667 0.032,0.261333 0.1066666,0.458666 0.08,0.192 0.2079999,0.309333 0.1333332,0.112 0.3359998,0.112 z m 1.765331,-2.682665 q 0.1919999,0 0.3733331,-0.032 0.1813333,-0.032 0.3253332,-0.106667 0.1493332,-0.07467 0.2506665,-0.191999 0.1066666,-0.117334 0.1386666,-0.288 h 0.4959997 v 3.733331 H 5.9602515 V 15.549358 H 5.0429187 Z m 4.1653297,-0.693333 q 0.3999997,0 0.6506663,0.186667 0.2560003,0.181333 0.3946663,0.469333 0.144,0.282666 0.192,0.623999 0.05333,0.341333 0.05333,0.661333 0,0.32 -0.05333,0.661333 -0.048,0.341333 -0.192,0.629333 -0.138666,0.282667 -0.3946663,0.469333 -0.2506666,0.181333 -0.6506663,0.181333 -0.3999998,0 -0.6559996,-0.181333 -0.2506665,-0.186666 -0.3946665,-0.469333 -0.1386665,-0.288 -0.1919998,-0.629333 -0.048,-0.341333 -0.048,-0.661333 0,-0.32 0.048,-0.661333 0.053333,-0.341333 0.1919998,-0.623999 0.144,-0.288 0.3946665,-0.469333 0.2559998,-0.186667 0.6559996,-0.186667 z m 0,3.375998 q 0.1973332,0 0.3306665,-0.112 0.1333332,-0.117333 0.2079998,-0.309333 0.08,-0.197333 0.112,-0.458666 0.032,-0.261334 0.032,-0.554667 0,-0.293333 -0.032,-0.549333 -0.032,-0.261333 -0.112,-0.458666 -0.074667,-0.197333 -0.2079998,-0.309333 -0.1333333,-0.117334 -0.3306665,-0.117334 -0.2026666,0 -0.3359998,0.117334 -0.1279999,0.112 -0.2079999,0.309333 -0.074667,0.197333 -0.1066666,0.458666 -0.032,0.256 -0.032,0.549333 0,0.293333 0.032,0.554667 0.032,0.261333 0.1066666,0.458666 0.08,0.192 0.2079999,0.309333 0.1333332,0.112 0.3359998,0.112 z M 10.97358,15.069358 q 0.192,0 0.373333,-0.032 0.181333,-0.032 0.325333,-0.106667 0.149333,-0.07467 0.250666,-0.191999 0.106667,-0.117334 0.138667,-0.288 h 0.496 v 3.733331 H 11.890912 V 15.549358 H 10.97358 Z m 4.165329,-0.693333 q 0.4,0 0.650666,0.186667 0.256,0.181333 0.394667,0.469333 0.144,0.282666 0.192,0.623999 0.05333,0.341333 0.05333,0.661333 0,0.32 -0.05333,0.661333 -0.048,0.341333 -0.192,0.629333 -0.138667,0.282667 -0.394667,0.469333 -0.250666,0.181333 -0.650666,0.181333 -0.4,0 -0.656,-0.181333 -0.250666,-0.186666 -0.394666,-0.469333 -0.138667,-0.288 -0.192,-0.629333 -0.048,-0.341333 -0.048,-0.661333 0,-0.32 0.048,-0.661333 0.05333,-0.341333 0.192,-0.623999 0.144,-0.288 0.394666,-0.469333 0.256,-0.186667 0.656,-0.186667 z m 0,3.375998 q 0.197333,0 0.330667,-0.112 0.133333,-0.117333 0.207999,-0.309333 0.08,-0.197333 0.112,-0.458666 0.032,-0.261334 0.032,-0.554667 0,-0.293333 -0.032,-0.549333 -0.032,-0.261333 -0.112,-0.458666 -0.07467,-0.197333 -0.207999,-0.309333 -0.133334,-0.117334 -0.330667,-0.117334 -0.202666,0 -0.336,0.117334 -0.128,0.112 -0.208,0.309333 -0.07467,0.197333 -0.106666,0.458666 -0.032,0.256 -0.032,0.549333 0,0.293333 0.032,0.554667 0.032,0.261333 0.106666,0.458666 0.08,0.192 0.208,0.309333 0.133334,0.112 0.336,0.112 z m 2.96533,-3.375998 q 0.4,0 0.650667,0.186667 0.255999,0.181333 0.394666,0.469333 0.144,0.282666 0.192,0.623999 0.05333,0.341333 0.05333,0.661333 0,0.32 -0.05333,0.661333 -0.048,0.341333 -0.192,0.629333 -0.138667,0.282667 -0.394666,0.469333 -0.250667,0.181333 -0.650667,0.181333 -0.4,0 -0.655999,-0.181333 -0.250667,-0.186666 -0.394667,-0.469333 -0.138666,-0.288 -0.192,-0.629333 -0.048,-0.341333 -0.048,-0.661333 0,-0.32 0.048,-0.661333 0.05333,-0.341333 0.192,-0.623999 0.144,-0.288 0.394667,-0.469333 0.255999,-0.186667 0.655999,-0.186667 z m 0,3.375998 q 0.197333,0 0.330667,-0.112 0.133333,-0.117333 0.208,-0.309333 0.08,-0.197333 0.112,-0.458666 0.032,-0.261334 0.032,-0.554667 0,-0.293333 -0.032,-0.549333 -0.032,-0.261333 -0.112,-0.458666 -0.07467,-0.197333 -0.208,-0.309333 -0.133334,-0.117334 -0.330667,-0.117334 -0.202666,0 -0.336,0.117334 -0.127999,0.112 -0.207999,0.309333 -0.07467,0.197333 -0.106667,0.458666 -0.032,0.256 -0.032,0.549333 0,0.293333 0.032,0.554667 0.032,0.261333 0.106667,0.458666 0.08,0.192 0.207999,0.309333 0.133334,0.112 0.336,0.112 z m 1.765332,-2.682665 q 0.192,0 0.373333,-0.032 0.181333,-0.032 0.325333,-0.106667 0.149334,-0.07467 0.250667,-0.191999 0.106666,-0.117334 0.138666,-0.288 h 0.496 v 3.733331 H 20.786904 V 15.549358 H 19.869571 Z M 24.0349,14.376025 q 0.4,0 0.650667,0.186667 0.256,0.181333 0.394666,0.469333 0.144,0.282666 0.192,0.623999 0.05333,0.341333 0.05333,0.661333 0,0.32 -0.05333,0.661333 -0.048,0.341333 -0.192,0.629333 -0.138666,0.282667 -0.394666,0.469333 -0.250667,0.181333 -0.650667,0.181333 -0.399999,0 -0.655999,-0.181333 -0.250667,-0.186666 -0.394667,-0.469333 -0.138666,-0.288 -0.191999,-0.629333 -0.048,-0.341333 -0.048,-0.661333 0,-0.32 0.048,-0.661333 0.05333,-0.341333 0.191999,-0.623999 0.144,-0.288 0.394667,-0.469333 0.256,-0.186667 0.655999,-0.186667 z m 0,3.375998 q 0.197334,0 0.330667,-0.112 0.133333,-0.117333 0.208,-0.309333 0.08,-0.197333 0.112,-0.458666 0.032,-0.261334 0.032,-0.554667 0,-0.293333 -0.032,-0.549333 -0.032,-0.261333 -0.112,-0.458666 -0.07467,-0.197333 -0.208,-0.309333 -0.133333,-0.117334 -0.330667,-0.117334 -0.202666,0 -0.335999,0.117334 -0.128,0.112 -0.208,0.309333 -0.07467,0.197333 -0.106667,0.458666 -0.032,0.256 -0.032,0.549333 0,0.293333 0.032,0.554667 0.032,0.261333 0.106667,0.458666 0.08,0.192 0.208,0.309333 0.133333,0.112 0.335999,0.112 z m 2.965331,-3.375998 q 0.399999,0 0.650666,0.186667 0.256,0.181333 0.394666,0.469333 0.144,0.282666 0.192,0.623999 0.05333,0.341333 0.05333,0.661333 0,0.32 -0.05333,0.661333 -0.048,0.341333 -0.192,0.629333 -0.138666,0.282667 -0.394666,0.469333 -0.250667,0.181333 -0.650666,0.181333 -0.4,0 -0.656,-0.181333 -0.250667,-0.186666 -0.394666,-0.469333 -0.138667,-0.288 -0.192,-0.629333 -0.048,-0.341333 -0.048,-0.661333 0,-0.32 0.048,-0.661333 0.05333,-0.341333 0.192,-0.623999 0.143999,-0.288 0.394666,-0.469333 0.256,-0.186667 0.656,-0.186667 z m 0,3.375998 q 0.197333,0 0.330666,-0.112 0.133333,-0.117333 0.208,-0.309333 0.08,-0.197333 0.112,-0.458666 0.032,-0.261334 0.032,-0.554667 0,-0.293333 -0.032,-0.549333 -0.032,-0.261333 -0.112,-0.458666 -0.07467,-0.197333 -0.208,-0.309333 -0.133333,-0.117334 -0.330666,-0.117334 -0.202667,0 -0.336,0.117334 -0.128,0.112 -0.208,0.309333 -0.07467,0.197333 -0.106667,0.458666 -0.032,0.256 -0.032,0.549333 0,0.293333 0.032,0.554667 0.032,0.261333 0.106667,0.458666 0.08,0.192 0.208,0.309333 0.133333,0.112 0.336,0.112 z m 1.76533,-2.682665 q 0.192,0 0.373334,-0.032 0.181333,-0.032 0.325333,-0.106667 0.149333,-0.07467 0.250666,-0.191999 0.106667,-0.117334 0.138667,-0.288 h 0.495999 v 3.733331 h -0.666666 v -2.634665 h -0.917333 z m 4.16533,-0.693333 q 0.4,0 0.650666,0.186667 0.256,0.181333 0.394667,0.469333 0.143999,0.282666 0.191999,0.623999 0.05333,0.341333 0.05333,0.661333 0,0.32 -0.05333,0.661333 -0.048,0.341333 -0.191999,0.629333 -0.138667,0.282667 -0.394667,0.469333 -0.250666,0.181333 -0.650666,0.181333 -0.4,0 -0.656,-0.181333 -0.250666,-0.186666 -0.394666,-0.469333 -0.138667,-0.288 -0.192,-0.629333 -0.048,-0.341333 -0.048,-0.661333 0,-0.32 0.048,-0.661333 0.05333,-0.341333 0.192,-0.623999 0.144,-0.288 0.394666,-0.469333 0.256,-0.186667 0.656,-0.186667 z m 0,3.375998 q 0.197333,0 0.330666,-0.112 0.133334,-0.117333 0.208,-0.309333 0.08,-0.197333 0.112,-0.458666 0.032,-0.261334 0.032,-0.554667 0,-0.293333 -0.032,-0.549333 -0.032,-0.261333 -0.112,-0.458666 -0.07467,-0.197333 -0.208,-0.309333 -0.133333,-0.117334 -0.330666,-0.117334 -0.202667,0 -0.336,0.117334 -0.128,0.112 -0.208,0.309333 -0.07467,0.197333 -0.106666,0.458666 -0.032,0.256 -0.032,0.549333 0,0.293333 0.032,0.554667 0.032,0.261333 0.106666,0.458666 0.08,0.192 0.208,0.309333 0.133333,0.112 0.336,0.112 z M 3.2775877,19.176022 q 0.3999997,0 0.6506662,0.186667 0.2559999,0.181333 0.3946665,0.469333 0.1439999,0.282667 0.1919999,0.624 0.053333,0.341333 0.053333,0.661333 0,0.319999 -0.053333,0.661333 -0.048,0.341333 -0.1919999,0.629333 -0.1386666,0.282666 -0.3946665,0.469333 -0.2506665,0.181333 -0.6506662,0.181333 -0.3999998,0 -0.6559997,-0.181333 -0.2506665,-0.186667 -0.3946664,-0.469333 -0.1386666,-0.288 -0.1919999,-0.629333 -0.048,-0.341334 -0.048,-0.661333 0,-0.32 0.048,-0.661333 0.053333,-0.341333 0.1919999,-0.624 0.1439999,-0.288 0.3946664,-0.469333 0.2559999,-0.186667 0.6559997,-0.186667 z m 0,3.375998 q 0.1973332,0 0.3306664,-0.112 0.1333333,-0.117333 0.2079999,-0.309333 0.08,-0.197333 0.1119999,-0.458666 0.032,-0.261333 0.032,-0.554666 0,-0.293334 -0.032,-0.549333 -0.032,-0.261334 -0.1119999,-0.458667 -0.074667,-0.197333 -0.2079999,-0.309333 -0.1333332,-0.117333 -0.3306664,-0.117333 -0.2026666,0 -0.3359998,0.117333 -0.128,0.112 -0.2079999,0.309333 -0.074667,0.197333 -0.1066666,0.458667 -0.032,0.255999 -0.032,0.549333 0,0.293333 0.032,0.554666 0.032,0.261333 0.1066666,0.458666 0.08,0.192 0.2079999,0.309333 0.1333332,0.112 0.3359998,0.112 z m 1.765331,-2.682665 q 0.1919999,0 0.3733331,-0.032 0.1813333,-0.032 0.3253332,-0.106666 0.1493332,-0.07467 0.2506665,-0.192 0.1066666,-0.117333 0.1386666,-0.288 H 6.6269178 V 22.98402 H 5.9602515 V 20.349355 H 5.0429187 Z m 4.1653297,-0.693333 q 0.3999997,0 0.6506663,0.186667 0.2560003,0.181333 0.3946663,0.469333 0.144,0.282667 0.192,0.624 0.05333,0.341333 0.05333,0.661333 0,0.319999 -0.05333,0.661333 -0.048,0.341333 -0.192,0.629333 -0.138666,0.282666 -0.3946663,0.469333 -0.2506666,0.181333 -0.6506663,0.181333 -0.3999998,0 -0.6559996,-0.181333 -0.2506665,-0.186667 -0.3946665,-0.469333 -0.1386665,-0.288 -0.1919998,-0.629333 -0.048,-0.341334 -0.048,-0.661333 0,-0.32 0.048,-0.661333 0.053333,-0.341333 0.1919998,-0.624 0.144,-0.288 0.3946665,-0.469333 0.2559998,-0.186667 0.6559996,-0.186667 z m 0,3.375998 q 0.1973332,0 0.3306665,-0.112 0.1333332,-0.117333 0.2079998,-0.309333 0.08,-0.197333 0.112,-0.458666 0.032,-0.261333 0.032,-0.554666 0,-0.293334 -0.032,-0.549333 -0.032,-0.261334 -0.112,-0.458667 -0.074667,-0.197333 -0.2079998,-0.309333 -0.1333333,-0.117333 -0.3306665,-0.117333 -0.2026666,0 -0.3359998,0.117333 -0.1279999,0.112 -0.2079999,0.309333 -0.074667,0.197333 -0.1066666,0.458667 -0.032,0.255999 -0.032,0.549333 0,0.293333 0.032,0.554666 0.032,0.261333 0.1066666,0.458666 0.08,0.192 0.2079999,0.309333 0.1333332,0.112 0.3359998,0.112 z m 2.9653306,-3.375998 q 0.4,0 0.650666,0.186667 0.256,0.181333 0.394667,0.469333 0.144,0.282667 0.192,0.624 0.05333,0.341333 0.05333,0.661333 0,0.319999 -0.05333,0.661333 -0.048,0.341333 -0.192,0.629333 -0.138667,0.282666 -0.394667,0.469333 -0.250666,0.181333 -0.650666,0.181333 -0.4,0 -0.656,-0.181333 -0.250666,-0.186667 -0.394666,-0.469333 -0.138667,-0.288 -0.192,-0.629333 -0.048,-0.341334 -0.048,-0.661333 0,-0.32 0.048,-0.661333 0.05333,-0.341333 0.192,-0.624 0.144,-0.288 0.394666,-0.469333 0.256,-0.186667 0.656,-0.186667 z m 0,3.375998 q 0.197333,0 0.330666,-0.112 0.133334,-0.117333 0.208,-0.309333 0.08,-0.197333 0.112,-0.458666 0.032,-0.261333 0.032,-0.554666 0,-0.293334 -0.032,-0.549333 -0.032,-0.261334 -0.112,-0.458667 -0.07467,-0.197333 -0.208,-0.309333 -0.133333,-0.117333 -0.330666,-0.117333 -0.202667,0 -0.336,0.117333 -0.128,0.112 -0.208,0.309333 -0.07467,0.197333 -0.106666,0.458667 -0.032,0.255999 -0.032,0.549333 0,0.293333 0.032,0.554666 0.032,0.261333 0.106666,0.458666 0.08,0.192 0.208,0.309333 0.133333,0.112 0.336,0.112 z m 1.765331,-2.682665 q 0.192,0 0.373333,-0.032 0.181333,-0.032 0.325333,-0.106666 0.149333,-0.07467 0.250667,-0.192 0.106666,-0.117333 0.138666,-0.288 h 0.496 V 22.98402 H 14.856243 V 20.349355 H 13.93891 Z m 4.165329,-0.693333 q 0.4,0 0.650667,0.186667 0.255999,0.181333 0.394666,0.469333 0.144,0.282667 0.192,0.624 0.05333,0.341333 0.05333,0.661333 0,0.319999 -0.05333,0.661333 -0.048,0.341333 -0.192,0.629333 -0.138667,0.282666 -0.394666,0.469333 -0.250667,0.181333 -0.650667,0.181333 -0.4,0 -0.655999,-0.181333 -0.250667,-0.186667 -0.394667,-0.469333 -0.138666,-0.288 -0.192,-0.629333 -0.048,-0.341334 -0.048,-0.661333 0,-0.32 0.048,-0.661333 0.05333,-0.341333 0.192,-0.624 0.144,-0.288 0.394667,-0.469333 0.255999,-0.186667 0.655999,-0.186667 z m 0,3.375998 q 0.197333,0 0.330667,-0.112 0.133333,-0.117333 0.208,-0.309333 0.08,-0.197333 0.112,-0.458666 0.032,-0.261333 0.032,-0.554666 0,-0.293334 -0.032,-0.549333 -0.032,-0.261334 -0.112,-0.458667 -0.07467,-0.197333 -0.208,-0.309333 -0.133334,-0.117333 -0.330667,-0.117333 -0.202666,0 -0.336,0.117333 -0.127999,0.112 -0.207999,0.309333 -0.07467,0.197333 -0.106667,0.458667 -0.032,0.255999 -0.032,0.549333 0,0.293333 0.032,0.554666 0.032,0.261333 0.106667,0.458666 0.08,0.192 0.207999,0.309333 0.133334,0.112 0.336,0.112 z m 1.765332,-2.682665 q 0.192,0 0.373333,-0.032 0.181333,-0.032 0.325333,-0.106666 0.149334,-0.07467 0.250667,-0.192 0.106666,-0.117333 0.138666,-0.288 h 0.496 V 22.98402 H 20.786904 V 20.349355 H 19.869571 Z M 24.0349,19.176022 q 0.4,0 0.650667,0.186667 0.256,0.181333 0.394666,0.469333 0.144,0.282667 0.192,0.624 0.05333,0.341333 0.05333,0.661333 0,0.319999 -0.05333,0.661333 -0.048,0.341333 -0.192,0.629333 -0.138666,0.282666 -0.394666,0.469333 -0.250667,0.181333 -0.650667,0.181333 -0.399999,0 -0.655999,-0.181333 -0.250667,-0.186667 -0.394667,-0.469333 -0.138666,-0.288 -0.191999,-0.629333 -0.048,-0.341334 -0.048,-0.661333 0,-0.32 0.048,-0.661333 0.05333,-0.341333 0.191999,-0.624 0.144,-0.288 0.394667,-0.469333 0.256,-0.186667 0.655999,-0.186667 z m 0,3.375998 q 0.197334,0 0.330667,-0.112 0.133333,-0.117333 0.208,-0.309333 0.08,-0.197333 0.112,-0.458666 0.032,-0.261333 0.032,-0.554666 0,-0.293334 -0.032,-0.549333 -0.032,-0.261334 -0.112,-0.458667 -0.07467,-0.197333 -0.208,-0.309333 -0.133333,-0.117333 -0.330667,-0.117333 -0.202666,0 -0.335999,0.117333 -0.128,0.112 -0.208,0.309333 -0.07467,0.197333 -0.106667,0.458667 -0.032,0.255999 -0.032,0.549333 0,0.293333 0.032,0.554666 0.032,0.261333 0.106667,0.458666 0.08,0.192 0.208,0.309333 0.133333,0.112 0.335999,0.112 z m 1.765331,-2.682665 q 0.192,0 0.373333,-0.032 0.181334,-0.032 0.325334,-0.106666 0.149333,-0.07467 0.250666,-0.192 0.106667,-0.117333 0.138667,-0.288 h 0.495999 v 3.733331 h -0.666666 v -2.634665 h -0.917333 z m 4.16533,-0.693333 q 0.399999,0 0.650666,0.186667 0.256,0.181333 0.394666,0.469333 0.144,0.282667 0.192,0.624 0.05333,0.341333 0.05333,0.661333 0,0.319999 -0.05333,0.661333 -0.048,0.341333 -0.192,0.629333 -0.138666,0.282666 -0.394666,0.469333 -0.250667,0.181333 -0.650666,0.181333 -0.4,0 -0.656,-0.181333 -0.250666,-0.186667 -0.394666,-0.469333 -0.138667,-0.288 -0.192,-0.629333 -0.048,-0.341334 -0.048,-0.661333 0,-0.32 0.048,-0.661333 0.05333,-0.341333 0.192,-0.624 0.144,-0.288 0.394666,-0.469333 0.256,-0.186667 0.656,-0.186667 z m 0,3.375998 q 0.197333,0 0.330666,-0.112 0.133333,-0.117333 0.208,-0.309333 0.08,-0.197333 0.112,-0.458666 0.032,-0.261333 0.032,-0.554666 0,-0.293334 -0.032,-0.549333 -0.032,-0.261334 -0.112,-0.458667 -0.07467,-0.197333 -0.208,-0.309333 -0.133333,-0.117333 -0.330666,-0.117333 -0.202667,0 -0.336,0.117333 -0.128,0.112 -0.208,0.309333 -0.07467,0.197333 -0.106667,0.458667 -0.032,0.255999 -0.032,0.549333 0,0.293333 0.032,0.554666 0.032,0.261333 0.106667,0.458666 0.08,0.192 0.208,0.309333 0.133333,0.112 0.336,0.112 z m 1.765331,-2.682665 q 0.191999,0 0.373333,-0.032 0.181333,-0.032 0.325333,-0.106666 0.149333,-0.07467 0.250666,-0.192 0.106667,-0.117333 0.138667,-0.288 h 0.496 V 22.98402 H 32.648224 V 20.349355 H 31.730892 Z M 2.0775884,24.669353 q 0.1919999,0 0.3733331,-0.032 0.1813332,-0.032 0.3253331,-0.106667 0.1493333,-0.07467 0.2506665,-0.192 0.1066666,-0.117333 0.1386666,-0.288 h 0.4959997 v 3.733332 H 2.9949212 V 25.149352 H 2.0775884 Z m 2.9653303,0 q 0.1919999,0 0.3733331,-0.032 0.1813333,-0.032 0.3253332,-0.106667 0.1493332,-0.07467 0.2506665,-0.192 0.1066666,-0.117333 0.1386666,-0.288 h 0.4959997 v 3.733332 H 5.9602515 V 25.149352 H 5.0429187 Z m 2.9653304,0 q 0.1919999,0 0.3733331,-0.032 0.1813332,-0.032 0.3253331,-0.106667 0.1493333,-0.07467 0.2506666,-0.192 0.1066666,-0.117333 0.1386665,-0.288 h 0.4959998 v 3.733332 H 8.9255819 V 25.149352 H 8.0082491 Z m 2.9653309,0 q 0.192,0 0.373333,-0.032 0.181333,-0.032 0.325333,-0.106667 0.149333,-0.07467 0.250666,-0.192 0.106667,-0.117333 0.138667,-0.288 h 0.496 v 3.733332 H 11.890912 V 25.149352 H 10.97358 Z m 2.96533,0 q 0.192,0 0.373333,-0.032 0.181333,-0.032 0.325333,-0.106667 0.149333,-0.07467 0.250667,-0.192 0.106666,-0.117333 0.138666,-0.288 h 0.496 v 3.733332 H 14.856243 V 25.149352 H 13.93891 Z m 4.165329,-0.693333 q 0.4,0 0.650667,0.186666 0.255999,0.181334 0.394666,0.469333 0.144,0.282667 0.192,0.624 0.05333,0.341333 0.05333,0.661333 0,0.32 -0.05333,0.661333 -0.048,0.341333 -0.192,0.629333 -0.138667,0.282666 -0.394666,0.469333 -0.250667,0.181333 -0.650667,0.181333 -0.4,0 -0.655999,-0.181333 -0.250667,-0.186667 -0.394667,-0.469333 -0.138666,-0.288 -0.192,-0.629333 -0.048,-0.341333 -0.048,-0.661333 0,-0.32 0.048,-0.661333 0.05333,-0.341333 0.192,-0.624 0.144,-0.287999 0.394667,-0.469333 0.255999,-0.186666 0.655999,-0.186666 z m 0,3.375998 q 0.197333,0 0.330667,-0.112 0.133333,-0.117333 0.208,-0.309333 0.08,-0.197334 0.112,-0.458667 0.032,-0.261333 0.032,-0.554666 0,-0.293333 -0.032,-0.549333 -0.032,-0.261333 -0.112,-0.458666 -0.07467,-0.197334 -0.208,-0.309334 -0.133334,-0.117333 -0.330667,-0.117333 -0.202666,0 -0.336,0.117333 -0.127999,0.112 -0.207999,0.309334 -0.07467,0.197333 -0.106667,0.458666 -0.032,0.256 -0.032,0.549333 0,0.293333 0.032,0.554666 0.032,0.261333 0.106667,0.458667 0.08,0.192 0.207999,0.309333 0.133334,0.112 0.336,0.112 z m 1.765332,-2.682665 q 0.192,0 0.373333,-0.032 0.181333,-0.032 0.325333,-0.106667 0.149334,-0.07467 0.250667,-0.192 0.106666,-0.117333 0.138666,-0.288 h 0.496 v 3.733332 H 20.786904 V 25.149352 H 19.869571 Z M 24.0349,23.97602 q 0.4,0 0.650667,0.186666 0.256,0.181334 0.394666,0.469333 0.144,0.282667 0.192,0.624 0.05333,0.341333 0.05333,0.661333 0,0.32 -0.05333,0.661333 -0.048,0.341333 -0.192,0.629333 -0.138666,0.282666 -0.394666,0.469333 -0.250667,0.181333 -0.650667,0.181333 -0.399999,0 -0.655999,-0.181333 -0.250667,-0.186667 -0.394667,-0.469333 -0.138666,-0.288 -0.191999,-0.629333 -0.048,-0.341333 -0.048,-0.661333 0,-0.32 0.048,-0.661333 0.05333,-0.341333 0.191999,-0.624 0.144,-0.287999 0.394667,-0.469333 0.256,-0.186666 0.655999,-0.186666 z m 0,3.375998 q 0.197334,0 0.330667,-0.112 0.133333,-0.117333 0.208,-0.309333 0.08,-0.197334 0.112,-0.458667 0.032,-0.261333 0.032,-0.554666 0,-0.293333 -0.032,-0.549333 -0.032,-0.261333 -0.112,-0.458666 -0.07467,-0.197334 -0.208,-0.309334 -0.133333,-0.117333 -0.330667,-0.117333 -0.202666,0 -0.335999,0.117333 -0.128,0.112 -0.208,0.309334 -0.07467,0.197333 -0.106667,0.458666 -0.032,0.256 -0.032,0.549333 0,0.293333 0.032,0.554666 0.032,0.261333 0.106667,0.458667 0.08,0.192 0.208,0.309333 0.133333,0.112 0.335999,0.112 z m 1.765331,-2.682665 q 0.192,0 0.373333,-0.032 0.181334,-0.032 0.325334,-0.106667 0.149333,-0.07467 0.250666,-0.192 0.106667,-0.117333 0.138667,-0.288 h 0.495999 v 3.733332 h -0.666666 v -2.634666 h -0.917333 z m 4.16533,-0.693333 q 0.399999,0 0.650666,0.186666 0.256,0.181334 0.394666,0.469333 0.144,0.282667 0.192,0.624 0.05333,0.341333 0.05333,0.661333 0,0.32 -0.05333,0.661333 -0.048,0.341333 -0.192,0.629333 -0.138666,0.282666 -0.394666,0.469333 -0.250667,0.181333 -0.650666,0.181333 -0.4,0 -0.656,-0.181333 -0.250666,-0.186667 -0.394666,-0.469333 -0.138667,-0.288 -0.192,-0.629333 -0.048,-0.341333 -0.048,-0.661333 0,-0.32 0.048,-0.661333 0.05333,-0.341333 0.192,-0.624 0.144,-0.287999 0.394666,-0.469333 0.256,-0.186666 0.656,-0.186666 z m 0,3.375998 q 0.197333,0 0.330666,-0.112 0.133333,-0.117333 0.208,-0.309333 0.08,-0.197334 0.112,-0.458667 0.032,-0.261333 0.032,-0.554666 0,-0.293333 -0.032,-0.549333 -0.032,-0.261333 -0.112,-0.458666 -0.07467,-0.197334 -0.208,-0.309334 -0.133333,-0.117333 -0.330666,-0.117333 -0.202667,0 -0.336,0.117333 -0.128,0.112 -0.208,0.309334 -0.07467,0.197333 -0.106667,0.458666 -0.032,0.256 -0.032,0.549333 0,0.293333 0.032,0.554666 0.032,0.261333 0.106667,0.458667 0.08,0.192 0.208,0.309333 0.133333,0.112 0.336,0.112 z m 1.765331,-2.682665 q 0.191999,0 0.373333,-0.032 0.181333,-0.032 0.325333,-0.106667 0.149333,-0.07467 0.250666,-0.192 0.106667,-0.117333 0.138667,-0.288 h 0.496 v 3.733332 H 32.648224 V 25.149352 H 31.730892 Z M 3.2775877,28.776017 q 0.3999997,0 0.6506662,0.186667 0.2559999,0.181333 0.3946665,0.469333 0.1439999,0.282666 0.1919999,0.623999 0.053333,0.341333 0.053333,0.661333 0,0.32 -0.053333,0.661333 -0.048,0.341333 -0.1919999,0.629333 -0.1386666,0.282667 -0.3946665,0.469333 -0.2506665,0.181333 -0.6506662,0.181333 -0.3999998,0 -0.6559997,-0.181333 -0.2506665,-0.186666 -0.3946664,-0.469333 -0.1386666,-0.288 -0.1919999,-0.629333 -0.048,-0.341333 -0.048,-0.661333 0,-0.32 0.048,-0.661333 0.053333,-0.341333 0.1919999,-0.623999 0.1439999,-0.288 0.3946664,-0.469333 0.2559999,-0.186667 0.6559997,-0.186667 z m 0,3.375998 q 0.1973332,0 0.3306664,-0.112 0.1333333,-0.117333 0.2079999,-0.309333 0.08,-0.197333 0.1119999,-0.458666 0.032,-0.261334 0.032,-0.554667 0,-0.293333 -0.032,-0.549333 -0.032,-0.261333 -0.1119999,-0.458666 -0.074667,-0.197333 -0.2079999,-0.309333 -0.1333332,-0.117334 -0.3306664,-0.117334 -0.2026666,0 -0.3359998,0.117334 -0.128,0.112 -0.2079999,0.309333 -0.074667,0.197333 -0.1066666,0.458666 -0.032,0.256 -0.032,0.549333 0,0.293333 0.032,0.554667 0.032,0.261333 0.1066666,0.458666 0.08,0.192 0.2079999,0.309333 0.1333332,0.112 0.3359998,0.112 z m 1.765331,-2.682665 q 0.1919999,0 0.3733331,-0.032 0.1813333,-0.032 0.3253332,-0.106667 0.1493332,-0.07467 0.2506665,-0.191999 0.1066666,-0.117334 0.1386666,-0.288 h 0.4959997 v 3.733331 H 5.9602515 V 29.94935 H 5.0429187 Z m 4.1653297,-0.693333 q 0.3999997,0 0.6506663,0.186667 0.2560003,0.181333 0.3946663,0.469333 0.144,0.282666 0.192,0.623999 0.05333,0.341333 0.05333,0.661333 0,0.32 -0.05333,0.661333 -0.048,0.341333 -0.192,0.629333 -0.138666,0.282667 -0.3946663,0.469333 -0.2506666,0.181333 -0.6506663,0.181333 -0.3999998,0 -0.6559996,-0.181333 -0.2506665,-0.186666 -0.3946665,-0.469333 -0.1386665,-0.288 -0.1919998,-0.629333 -0.048,-0.341333 -0.048,-0.661333 0,-0.32 0.048,-0.661333 0.053333,-0.341333 0.1919998,-0.623999 0.144,-0.288 0.3946665,-0.469333 0.2559998,-0.186667 0.6559996,-0.186667 z m 0,3.375998 q 0.1973332,0 0.3306665,-0.112 0.1333332,-0.117333 0.2079998,-0.309333 0.08,-0.197333 0.112,-0.458666 0.032,-0.261334 0.032,-0.554667 0,-0.293333 -0.032,-0.549333 -0.032,-0.261333 -0.112,-0.458666 -0.074667,-0.197333 -0.2079998,-0.309333 -0.1333333,-0.117334 -0.3306665,-0.117334 -0.2026666,0 -0.3359998,0.117334 -0.1279999,0.112 -0.2079999,0.309333 -0.074667,0.197333 -0.1066666,0.458666 -0.032,0.256 -0.032,0.549333 0,0.293333 0.032,0.554667 0.032,0.261333 0.1066666,0.458666 0.08,0.192 0.2079999,0.309333 0.1333332,0.112 0.3359998,0.112 z M 10.97358,29.46935 q 0.192,0 0.373333,-0.032 0.181333,-0.032 0.325333,-0.106667 0.149333,-0.07467 0.250666,-0.191999 0.106667,-0.117334 0.138667,-0.288 h 0.496 v 3.733331 H 11.890912 V 29.94935 H 10.97358 Z m 4.165329,-0.693333 q 0.4,0 0.650666,0.186667 0.256,0.181333 0.394667,0.469333 0.144,0.282666 0.192,0.623999 0.05333,0.341333 0.05333,0.661333 0,0.32 -0.05333,0.661333 -0.048,0.341333 -0.192,0.629333 -0.138667,0.282667 -0.394667,0.469333 -0.250666,0.181333 -0.650666,0.181333 -0.4,0 -0.656,-0.181333 -0.250666,-0.186666 -0.394666,-0.469333 -0.138667,-0.288 -0.192,-0.629333 -0.048,-0.341333 -0.048,-0.661333 0,-0.32 0.048,-0.661333 0.05333,-0.341333 0.192,-0.623999 0.144,-0.288 0.394666,-0.469333 0.256,-0.186667 0.656,-0.186667 z m 0,3.375998 q 0.197333,0 0.330667,-0.112 0.133333,-0.117333 0.207999,-0.309333 0.08,-0.197333 0.112,-0.458666 0.032,-0.261334 0.032,-0.554667 0,-0.293333 -0.032,-0.549333 -0.032,-0.261333 -0.112,-0.458666 -0.07467,-0.197333 -0.207999,-0.309333 -0.133334,-0.117334 -0.330667,-0.117334 -0.202666,0 -0.336,0.117334 -0.128,0.112 -0.208,0.309333 -0.07467,0.197333 -0.106666,0.458666 -0.032,0.256 -0.032,0.549333 0,0.293333 0.032,0.554667 0.032,0.261333 0.106666,0.458666 0.08,0.192 0.208,0.309333 0.133334,0.112 0.336,0.112 z M 16.90424,29.46935 q 0.192,0 0.373333,-0.032 0.181333,-0.032 0.325333,-0.106667 0.149333,-0.07467 0.250667,-0.191999 0.106666,-0.117334 0.138666,-0.288 h 0.496 v 3.733331 H 17.821573 V 29.94935 H 16.90424 Z m 2.965331,0 q 0.192,0 0.373333,-0.032 0.181333,-0.032 0.325333,-0.106667 0.149334,-0.07467 0.250667,-0.191999 0.106666,-0.117334 0.138666,-0.288 h 0.496 v 3.733331 H 20.786904 V 29.94935 h -0.917333 z m 2.96533,0 q 0.192,0 0.373333,-0.032 0.181333,-0.032 0.325333,-0.106667 0.149334,-0.07467 0.250667,-0.191999 0.106667,-0.117334 0.138666,-0.288 h 0.496 v 3.733331 H 23.752234 V 29.94935 h -0.917333 z m 2.96533,0 q 0.192,0 0.373333,-0.032 0.181334,-0.032 0.325334,-0.106667 0.149333,-0.07467 0.250666,-0.191999 0.106667,-0.117334 0.138667,-0.288 h 0.495999 v 3.733331 H 26.717564 V 29.94935 h -0.917333 z m 2.96533,0 q 0.192,0 0.373334,-0.032 0.181333,-0.032 0.325333,-0.106667 0.149333,-0.07467 0.250666,-0.191999 0.106667,-0.117334 0.138667,-0.288 h 0.495999 v 3.733331 H 29.682894 V 29.94935 h -0.917333 z m 4.16533,-0.693333 q 0.4,0 0.650666,0.186667 0.256,0.181333 0.394667,0.469333 0.143999,0.282666 0.191999,0.623999 0.05333,0.341333 0.05333,0.661333 0,0.32 -0.05333,0.661333 -0.048,0.341333 -0.191999,0.629333 -0.138667,0.282667 -0.394667,0.469333 -0.250666,0.181333 -0.650666,0.181333 -0.4,0 -0.656,-0.181333 -0.250666,-0.186666 -0.394666,-0.469333 -0.138667,-0.288 -0.192,-0.629333 -0.048,-0.341333 -0.048,-0.661333 0,-0.32 0.048,-0.661333 0.05333,-0.341333 0.192,-0.623999 0.144,-0.288 0.394666,-0.469333 0.256,-0.186667 0.656,-0.186667 z m 0,3.375998 q 0.197333,0 0.330666,-0.112 0.133334,-0.117333 0.208,-0.309333 0.08,-0.197333 0.112,-0.458666 0.032,-0.261334 0.032,-0.554667 0,-0.293333 -0.032,-0.549333 -0.032,-0.261333 -0.112,-0.458666 -0.07467,-0.197333 -0.208,-0.309333 -0.133333,-0.117334 -0.330666,-0.117334 -0.202667,0 -0.336,0.117334 -0.128,0.112 -0.208,0.309333 -0.07467,0.197333 -0.106666,0.458666 -0.032,0.256 -0.032,0.549333 0,0.293333 0.032,0.554667 0.032,0.261333 0.106666,0.458666 0.08,0.192 0.208,0.309333 0.133333,0.112 0.336,0.112 z"
     id="text7"
     transform="matrix(0.6,0,0,0.6,0.9426306,0.49375888)"
     aria-label="101001010010010000010101010010010010010101011111101010101010111110" />
  <defs
     id="defs2">
    <linearGradient
       id="linearGradient7"
       inkscape:collect="always">
      <stop
         style="stop-color:#313131;stop-opacity:1;"
         offset="0"
         id="stop7" />
      <stop
         style="stop-color:#313131;stop-opacity:0;"
         offset="1"
         id="stop8" />
    </linearGradient>
    <rect
       x="1.7954869"
       y="4.4887171"
       width="35.535677"
       height="30.149217"
       id="rect7" />
    <linearGradient
       inkscape:collect="always"
       xlink:href="#linearGradient7"
       id="linearGradient8"
       x1="1.9869217"
       y1="18.717356"
       x2="34.221553"
       y2="18.717356"
       gradientUnits="userSpaceOnUse" />
  </defs>
  <sodipodi:namedview
     id="namedview2"
     pagecolor="#ffffff"
     bordercolor="#000000"
     borderopacity="0.25"
     inkscape:showpageshadow="2"
     inkscape:pageopacity="0.0"
     inkscape:pagecheckerboard="0"
     inkscape:deskcolor="#d1d1d1"
     inkscape:zoom="13.366848"
     inkscape:cx="22.780239"
     inkscape:cy="22.630616"
     inkscape:window-width="2056"
     inkscape:window-height="1262"
     inkscape:window-x="0"
     inkscape:window-y="39"
     inkscape:window-maximized="1"
     inkscape:current-layer="svg2" />
</svg>
