<svg width="40" height="40" viewBox="0 0 24 24" fill="none" xmlns="http://www.w3.org/2000/svg">
<path d="M13.667 11.3337V6.75033H15.3337V11.3337H13.667ZM13.667 6.33366V4.66699H15.3337V6.33366H13.667ZM16.167 11.3337V8.00033H17.8337V11.3337H16.167ZM16.167 7.58366V5.91699H17.8337V7.58366H16.167ZM18.667 11.3337V9.25033H20.3337V11.3337H18.667ZM18.667 8.83366V7.16699H20.3337V8.83366H18.667Z" fill="#E4E6E9"/>
<path d="M12 4.5C10.3189 4.5 8.67547 4.99852 7.27766 5.93251C5.87984 6.8665 4.79037 8.19402 4.14703 9.74719C3.50368 11.3004 3.33535 13.0094 3.66333 14.6583C3.9913 16.3071 4.80085 17.8217 5.9896 19.0104C7.17834 20.1992 8.6929 21.0087 10.3417 21.3367C11.9906 21.6647 13.6996 21.4963 15.2528 20.853C16.806 20.2096 18.1335 19.1202 19.0675 17.7223C20.0015 16.3245 20.5 14.6811 20.5 13C20.5 12.8674 20.4473 12.7402 20.3536 12.6464C20.2598 12.5527 20.1326 12.5 20 12.5H13C12.8674 12.5 12.7402 12.4473 12.6465 12.3536C12.5527 12.2598 12.5 12.1326 12.5 12V5C12.5 4.86739 12.4473 4.74021 12.3536 4.64645C12.2598 4.55268 12.1326 4.5 12 4.5Z" fill="#848D9C"/>
</svg>
