<svg width="24" height="24" viewBox="0 0 24 24" fill="none" xmlns="http://www.w3.org/2000/svg">
<path fill-rule="evenodd" clip-rule="evenodd" d="M11.25 5.788C9.88715 5.9297 8.59235 6.45465 7.5156 7.30203C6.43886 8.1494 5.62424 9.28452 5.16614 10.5759C4.70804 11.8672 4.6252 13.2619 4.92723 14.5984C5.22925 15.9349 5.90378 17.1585 6.87265 18.1274C7.84152 19.0962 9.06509 19.7707 10.4016 20.0728C11.7381 20.3748 13.1328 20.292 14.4241 19.8339C15.7155 19.3758 16.8506 18.5611 17.698 17.4844C18.5453 16.4077 19.0703 15.1128 19.212 13.75H12C11.8011 13.75 11.6103 13.671 11.4697 13.5303C11.329 13.3897 11.25 13.1989 11.25 13V5.788ZM3.25 13C3.25 10.6794 4.17187 8.45376 5.81282 6.81282C7.45376 5.17187 9.67936 4.25 12 4.25C12.1989 4.25 12.3897 4.32902 12.5303 4.46967C12.671 4.61032 12.75 4.80109 12.75 5V12.25H20C20.1989 12.25 20.3897 12.329 20.5303 12.4697C20.671 12.6103 20.75 12.8011 20.75 13C20.75 15.3206 19.8281 17.5462 18.1872 19.1872C16.5462 20.8281 14.3206 21.75 12 21.75C9.67936 21.75 7.45376 20.8281 5.81282 19.1872C4.17187 17.5462 3.25 15.3206 3.25 13Z" fill="#E4E6E9"/>
<path d="M13.667 11.3337V6.75033H15.3337V11.3337H13.667ZM13.667 6.33366V4.66699H15.3337V6.33366H13.667ZM16.167 11.3337V8.00033H17.8337V11.3337H16.167ZM16.167 7.58366V5.91699H17.8337V7.58366H16.167ZM18.667 11.3337V9.25033H20.3337V11.3337H18.667ZM18.667 8.83366V7.16699H20.3337V8.83366H18.667Z" fill="#848D9C"/>
</svg>
