<svg width="30" height="30" viewBox="0 0 128 128" fill="none" xmlns="http://www.w3.org/2000/svg">
<path d="M60.1497 30.8697V30.7033L59.9842 30.7205C52.6875 31.4791 45.755 34.2897 39.9901 38.8266C34.2252 43.3635 29.8637 49.4409 27.411 56.3548C24.9584 63.2687 24.5149 70.736 26.1319 77.8916C27.7489 85.0472 31.3604 91.5982 36.5477 96.7856C41.7351 101.973 48.2861 105.584 55.4417 107.201C62.5973 108.818 70.0646 108.375 76.9785 105.922C83.8924 103.47 89.9699 99.1081 94.5067 93.3432C99.0436 87.5783 101.854 80.6459 102.613 73.3492L102.63 73.1837H102.464H63.9997C62.9786 73.1837 61.9993 72.778 61.2773 72.056C60.5553 71.334 60.1497 70.3547 60.1497 69.3337V30.8697ZM67.8497 65.3337V65.4837H67.9997H106.666C107.687 65.4837 108.667 65.8893 109.389 66.6113C110.111 67.3333 110.516 68.3126 110.516 69.3337C110.516 81.6706 105.616 93.5023 96.8919 102.226C88.1684 110.949 76.3367 115.85 63.9997 115.85C51.6627 115.85 39.831 110.949 31.1074 102.226C22.3839 93.5023 17.483 81.6706 17.483 69.3337C17.483 56.9967 22.3839 45.165 31.1074 36.4414C39.831 27.7178 51.6627 22.817 63.9997 22.817C65.0208 22.817 66 23.2226 66.722 23.9446C67.444 24.6666 67.8497 25.6459 67.8497 26.667V65.3337Z" fill="url(#paint0_linear_563_4114)"/>
<path d="M60.1497 30.8697V30.7033L59.9842 30.7205C52.6875 31.4791 45.755 34.2897 39.9901 38.8266C34.2252 43.3635 29.8637 49.4409 27.411 56.3548C24.9584 63.2687 24.5149 70.736 26.1319 77.8916C27.7489 85.0472 31.3604 91.5982 36.5477 96.7856C41.7351 101.973 48.2861 105.584 55.4417 107.201C62.5973 108.818 70.0646 108.375 76.9785 105.922C83.8924 103.47 89.9699 99.1081 94.5067 93.3432C99.0436 87.5783 101.854 80.6459 102.613 73.3492L102.63 73.1837H102.464H63.9997C62.9786 73.1837 61.9993 72.778 61.2773 72.056C60.5553 71.334 60.1497 70.3547 60.1497 69.3337V30.8697ZM67.8497 65.3337V65.4837H67.9997H106.666C107.687 65.4837 108.667 65.8893 109.389 66.6113C110.111 67.3333 110.516 68.3126 110.516 69.3337C110.516 81.6706 105.616 93.5023 96.8919 102.226C88.1684 110.949 76.3367 115.85 63.9997 115.85C51.6627 115.85 39.831 110.949 31.1074 102.226C22.3839 93.5023 17.483 81.6706 17.483 69.3337C17.483 56.9967 22.3839 45.165 31.1074 36.4414C39.831 27.7178 51.6627 22.817 63.9997 22.817C65.0208 22.817 66 23.2226 66.722 23.9446C67.444 24.6666 67.8497 25.6459 67.8497 26.667V65.3337Z" stroke="#848D9C" stroke-width="0.3" style="mix-blend-mode:screen"/>
<path d="M72.9387 60.3942V36.0498H81.7276V60.3942H72.9387ZM72.9387 33.7276V24.9387H81.7276V33.7276H72.9387ZM86.272 60.3942V42.7164H95.0609V60.3942H86.272ZM86.272 31.6053H95.0609V40.3942H86.272V31.6053ZM99.6053 60.3942V49.3831H108.394V60.3942H99.6053ZM99.6053 38.272H108.394V47.0609H99.6053V38.272Z" fill="url(#paint1_linear_563_4114)"/>
<path d="M72.9387 60.3942V36.0498H81.7276V60.3942H72.9387ZM72.9387 33.7276V24.9387H81.7276V33.7276H72.9387ZM86.272 60.3942V42.7164H95.0609V60.3942H86.272ZM86.272 31.6053H95.0609V40.3942H86.272V31.6053ZM99.6053 60.3942V49.3831H108.394V60.3942H99.6053ZM99.6053 38.272H108.394V47.0609H99.6053V38.272Z" stroke="#848D9C" stroke-width="0.1" style="mix-blend-mode:plus-lighter"/>
<defs>
<linearGradient id="paint0_linear_563_4114" x1="29" y1="42.5" x2="99" y2="107.5" gradientUnits="userSpaceOnUse">
<stop offset="0.0115155" stop-color="#E06666"/>
<stop offset="0.20531" stop-color="#F6B26B"/>
<stop offset="0.469956" stop-color="#FFD966"/>
<stop offset="0.744566" stop-color="#93C47D"/>
<stop offset="0.916144" stop-color="#76A5AF"/>
</linearGradient>
<linearGradient id="paint1_linear_563_4114" x1="72.5" y1="24.5" x2="107.5" y2="60" gradientUnits="userSpaceOnUse">
<stop stop-color="#E06666"/>
<stop offset="0.244792" stop-color="#F6B26B"/>
<stop offset="0.5" stop-color="#FFD966"/>
<stop offset="0.776042" stop-color="#93C47D"/>
<stop offset="1" stop-color="#76A5AF"/>
</linearGradient>
</defs>
</svg>
